<svg width="1190" height="1683" version="1.1" xmlns="http://www.w3.org/2000/svg" desc="Created with imagetracer.js version 1.2.6" ><path fill="rgb(252,251,248)" stroke="rgb(252,251,248)" stroke-width="1" opacity="1" d="M 570.5 451 L 581 451.5 L 570.5 452 L 570.5 451 Z " /><path fill="rgb(252,251,248)" stroke="rgb(252,251,248)" stroke-width="1" opacity="1" d="M 610.5 451 L 620 451.5 L 610.5 452 L 610.5 451 Z " /><path fill="rgb(252,251,248)" stroke="rgb(252,251,248)" stroke-width="1" opacity="1" d="M 556.5 452 L 563 452.5 L 556.5 453 L 556.5 452 Z " /><path fill="rgb(252,251,248)" stroke="rgb(252,251,248)" stroke-width="1" opacity="1" d="M 628.5 452 L 634 452.5 L 628.5 453 L 628.5 452 Z " /><path fill="rgb(252,251,248)" stroke="rgb(252,251,248)" stroke-width="1" opacity="1" d="M 548.5 453 L 552 453.5 L 548.5 454 L 548.5 453 Z " /><path fill="rgb(252,251,248)" stroke="rgb(252,251,248)" stroke-width="1" opacity="1" d="M 639.5 453 L 643 453.5 L 639.5 454 L 639.5 453 Z " /><path fill="rgb(252,251,248)" stroke="rgb(252,251,248)" stroke-width="1" opacity="1" d="M 541.5 454 L 544 454.5 L 541.5 455 L 541.5 454 Z " /><path fill="rgb(252,251,248)" stroke="rgb(252,251,248)" stroke-width="1" opacity="1" d="M 646.5 454 L 650 454.5 L 646.5 455 L 646.5 454 Z " /><path fill="rgb(252,251,248)" stroke="rgb(252,251,248)" stroke-width="1" opacity="1" d="M 534.5 455 L 537 455.5 L 534.5 456 L 534.5 455 Z " /><path fill="rgb(252,251,248)" stroke="rgb(252,251,248)" stroke-width="1" opacity="1" d="M 653.5 455 L 657 455.5 L 653.5 456 L 653.5 455 Z " /><path fill="rgb(252,251,248)" stroke="rgb(252,251,248)" stroke-width="1" opacity="1" d="M 528.5 456 L 531 456.5 L 528.5 457 L 528.5 456 Z " /><path fill="rgb(252,251,248)" stroke="rgb(252,251,248)" stroke-width="1" opacity="1" d="M 660.5 456 L 663 456.5 L 660.5 457 L 660.5 456 Z " /><path fill="rgb(252,251,248)" stroke="rgb(252,251,248)" stroke-width="1" opacity="1" d="M 522.5 457 L 525 457.5 L 522.5 458 L 522.5 457 Z " /><path fill="rgb(252,251,248)" stroke="rgb(252,251,248)" stroke-width="1" opacity="1" d="M 666.5 457 L 669 457.5 L 666.5 458 L 666.5 457 Z " /><path fill="rgb(252,251,248)" stroke="rgb(252,251,248)" stroke-width="1" opacity="1" d="M 516.5 458 L 519 458.5 L 516.5 459 L 516.5 458 Z " /><path fill="rgb(252,251,248)" stroke="rgb(252,251,248)" stroke-width="1" opacity="1" d="M 671.5 458 L 674 458.5 L 671.5 459 L 671.5 458 Z " /><path fill="rgb(252,251,248)" stroke="rgb(252,251,248)" stroke-width="1" opacity="1" d="M 676.5 459 L 679 459.5 L 676.5 460 L 676.5 459 Z " /><path fill="rgb(252,251,248)" stroke="rgb(252,251,248)" stroke-width="1" opacity="1" d="M 507.5 460 L 510 460.5 L 507.5 461 L 507.5 460 Z " /><path fill="rgb(252,251,248)" stroke="rgb(252,251,248)" stroke-width="1" opacity="1" d="M 685.5 461 L 688 461.5 L 685.5 462 L 685.5 461 Z " /><path fill="rgb(252,251,248)" stroke="rgb(252,251,248)" stroke-width="1" opacity="1" d="M 689.5 462 L 692 462.5 L 689.5 463 L 689.5 462 Z " /><path fill="rgb(252,251,248)" stroke="rgb(252,251,248)" stroke-width="1" opacity="1" d="M 762.5 488 L 766 489.5 L 764.5 490 L 762.5 488 Z " /><path fill="rgb(252,251,248)" stroke="rgb(252,251,248)" stroke-width="1" opacity="1" d="M 775.5 494 L 779 496.5 L 777.5 496 L 775.5 494 Z " /><path fill="rgb(252,251,248)" stroke="rgb(252,251,248)" stroke-width="1" opacity="1" d="M 409.5 497 L 408.5 499 L 406.5 500 L 407.5 498 L 409.5 497 Z " /><path fill="rgb(252,251,248)" stroke="rgb(252,251,248)" stroke-width="1" opacity="1" d="M 786.5 500 L 787.5 502 L 786.5 500 Z " /><path fill="rgb(252,251,248)" stroke="rgb(252,251,248)" stroke-width="1" opacity="1" d="M 400.5 502 L 399.5 504 L 400.5 502 Z " /><path fill="rgb(252,251,248)" stroke="rgb(252,251,248)" stroke-width="1" opacity="1" d="M 793.5 504 L 794.5 506 L 793.5 504 Z " /><path fill="rgb(252,251,248)" stroke="rgb(252,251,248)" stroke-width="1" opacity="1" d="M 395.5 505 L 394.5 507 L 395.5 505 Z " /><path fill="rgb(252,251,248)" stroke="rgb(252,251,248)" stroke-width="1" opacity="1" d="M 798.5 507 L 799.5 509 L 798.5 507 Z " /><path fill="rgb(252,251,248)" stroke="rgb(252,251,248)" stroke-width="1" opacity="1" d="M 390.5 508 L 389.5 510 L 390.5 508 Z " /><path fill="rgb(252,251,248)" stroke="rgb(252,251,248)" stroke-width="1" opacity="1" d="M 803.5 510 L 804.5 512 L 803.5 510 Z " /><path fill="rgb(252,251,248)" stroke="rgb(252,251,248)" stroke-width="1" opacity="1" d="M 385.5 511 L 384.5 513 L 385.5 511 Z " /><path fill="rgb(252,251,248)" stroke="rgb(252,251,248)" stroke-width="1" opacity="1" d="M 806.5 512 L 807.5 514 L 806.5 512 Z " /><path fill="rgb(252,251,248)" stroke="rgb(252,251,248)" stroke-width="1" opacity="1" d="M 382.5 513 L 381.5 515 L 382.5 513 Z " /><path fill="rgb(252,251,248)" stroke="rgb(252,251,248)" stroke-width="1" opacity="1" d="M 809.5 514 L 810.5 516 L 809.5 514 Z " /><path fill="rgb(252,251,248)" stroke="rgb(252,251,248)" stroke-width="1" opacity="1" d="M 379.5 515 L 378.5 517 L 379.5 515 Z " /><path fill="rgb(252,251,248)" stroke="rgb(252,251,248)" stroke-width="1" opacity="1" d="M 812.5 516 L 813.5 518 L 812.5 516 Z " /><path fill="rgb(252,251,248)" stroke="rgb(252,251,248)" stroke-width="1" opacity="1" d="M 376.5 517 L 375.5 519 L 376.5 517 Z " /><path fill="rgb(252,251,248)" stroke="rgb(252,251,248)" stroke-width="1" opacity="1" d="M 815.5 518 L 816.5 520 L 815.5 518 Z " /><path fill="rgb(252,251,248)" stroke="rgb(252,251,248)" stroke-width="1" opacity="1" d="M 373.5 519 L 372.5 521 L 373.5 519 Z " /><path fill="rgb(252,251,248)" stroke="rgb(252,251,248)" stroke-width="1" opacity="1" d="M 818.5 520 L 819.5 522 L 818.5 520 Z " /><path fill="rgb(252,251,248)" stroke="rgb(252,251,248)" stroke-width="1" opacity="1" d="M 369.5 522 L 368.5 524 L 369.5 522 Z " /><path fill="rgb(252,251,248)" stroke="rgb(252,251,248)" stroke-width="1" opacity="1" d="M 822.5 523 L 823.5 525 L 822.5 523 Z " /><path fill="rgb(252,251,248)" stroke="rgb(252,251,248)" stroke-width="1" opacity="1" d="M 366.5 524 L 365.5 526 L 366.5 524 Z " /><path fill="rgb(252,251,248)" stroke="rgb(252,251,248)" stroke-width="1" opacity="1" d="M 825.5 525 L 827.5 528 L 825.5 525 Z " /><path fill="rgb(252,251,248)" stroke="rgb(252,251,248)" stroke-width="1" opacity="1" d="M 362.5 527 L 361.5 529 L 362.5 527 Z " /><path fill="rgb(252,251,248)" stroke="rgb(252,251,248)" stroke-width="1" opacity="1" d="M 829.5 528 L 831.5 531 L 829.5 528 Z " /><path fill="rgb(252,251,248)" stroke="rgb(252,251,248)" stroke-width="1" opacity="1" d="M 358.5 530 L 357.5 532 L 358.5 530 Z " /><path fill="rgb(252,251,248)" stroke="rgb(252,251,248)" stroke-width="1" opacity="1" d="M 833.5 531 L 835.5 534 L 833.5 531 Z " /><path fill="rgb(252,251,248)" stroke="rgb(252,251,248)" stroke-width="1" opacity="1" d="M 354.5 533 L 352.5 536 L 354.5 533 Z " /><path fill="rgb(252,251,248)" stroke="rgb(252,251,248)" stroke-width="1" opacity="1" d="M 838.5 535 L 840.5 538 L 838.5 535 Z " /><path fill="rgb(252,251,248)" stroke="rgb(252,251,248)" stroke-width="1" opacity="1" d="M 349.5 537 L 347.5 540 L 349.5 537 Z " /><path fill="rgb(252,251,248)" stroke="rgb(252,251,248)" stroke-width="1" opacity="1" d="M 843.5 539 L 846.5 543 L 843.5 539 Z " /><path fill="rgb(252,251,248)" stroke="rgb(252,251,248)" stroke-width="1" opacity="1" d="M 344.5 541 L 340.5 546 L 344.5 541 Z " /><path fill="rgb(252,251,248)" stroke="rgb(252,251,248)" stroke-width="1" opacity="1" d="M 849.5 544 L 853.5 549 L 849.5 544 Z " /><path fill="rgb(252,251,248)" stroke="rgb(252,251,248)" stroke-width="1" opacity="1" d="M 337.5 547 L 331.5 554 L 337.5 547 Z " /><path fill="rgb(252,251,248)" stroke="rgb(252,251,248)" stroke-width="1" opacity="1" d="M 857.5 551 L 866.5 561 L 857.5 551 Z " /><path fill="rgb(252,251,248)" stroke="rgb(252,251,248)" stroke-width="1" opacity="1" d="M 326.5 557 L 310.5 574 L 326.5 557 Z " /><path fill="rgb(252,251,248)" stroke="rgb(252,251,248)" stroke-width="1" opacity="1" d="M 876.5 570 L 886.5 581 L 876.5 570 Z " /><path fill="rgb(252,251,248)" stroke="rgb(252,251,248)" stroke-width="1" opacity="1" d="M 306.5 578 L 300.5 585 L 306.5 578 Z " /><path fill="rgb(252,251,248)" stroke="rgb(252,251,248)" stroke-width="1" opacity="1" d="M 888.5 583 L 893.5 589 L 888.5 583 Z " /><path fill="rgb(252,251,248)" stroke="rgb(252,251,248)" stroke-width="1" opacity="1" d="M 298.5 587 L 295.5 591 L 298.5 587 Z " /><path fill="rgb(252,251,248)" stroke="rgb(252,251,248)" stroke-width="1" opacity="1" d="M 895.5 591 L 898.5 595 L 895.5 591 Z " /><path fill="rgb(252,251,248)" stroke="rgb(252,251,248)" stroke-width="1" opacity="1" d="M 293.5 593 L 290.5 597 L 293.5 593 Z " /><path fill="rgb(252,251,248)" stroke="rgb(252,251,248)" stroke-width="1" opacity="1" d="M 899.5 596 L 902.5 600 L 899.5 596 Z " /><path fill="rgb(252,251,248)" stroke="rgb(252,251,248)" stroke-width="1" opacity="1" d="M 288.5 599 L 286.5 602 L 288.5 599 Z " /><path fill="rgb(252,251,248)" stroke="rgb(252,251,248)" stroke-width="1" opacity="1" d="M 903.5 601 L 905.5 604 L 903.5 601 Z " /><path fill="rgb(252,251,248)" stroke="rgb(252,251,248)" stroke-width="1" opacity="1" d="M 285.5 603 L 283.5 606 L 285.5 603 Z " /><path fill="rgb(252,251,248)" stroke="rgb(252,251,248)" stroke-width="1" opacity="1" d="M 907.5 606 L 908.5 608 L 907.5 606 Z " /><path fill="rgb(252,251,248)" stroke="rgb(252,251,248)" stroke-width="1" opacity="1" d="M 282.5 607 L 280.5 610 L 282.5 607 Z " /><path fill="rgb(252,251,248)" stroke="rgb(252,251,248)" stroke-width="1" opacity="1" d="M 910.5 610 L 911.5 612 L 910.5 610 Z " /><path fill="rgb(252,251,248)" stroke="rgb(252,251,248)" stroke-width="1" opacity="1" d="M 279.5 611 L 277.5 614 L 279.5 611 Z " /><path fill="rgb(252,251,248)" stroke="rgb(252,251,248)" stroke-width="1" opacity="1" d="M 912.5 613 L 914.5 616 L 912.5 613 Z " /><path fill="rgb(252,251,248)" stroke="rgb(252,251,248)" stroke-width="1" opacity="1" d="M 276.5 615 L 275.5 617 L 276.5 615 Z " /><path fill="rgb(252,251,248)" stroke="rgb(252,251,248)" stroke-width="1" opacity="1" d="M 915.5 617 L 916.5 619 L 915.5 617 Z " /><path fill="rgb(252,251,248)" stroke="rgb(252,251,248)" stroke-width="1" opacity="1" d="M 274.5 618 L 273.5 620 L 274.5 618 Z " /><path fill="rgb(252,251,248)" stroke="rgb(252,251,248)" stroke-width="1" opacity="1" d="M 917.5 620 L 918.5 622 L 917.5 620 Z " /><path fill="rgb(252,251,248)" stroke="rgb(252,251,248)" stroke-width="1" opacity="1" d="M 271.5 622 L 270.5 624 L 271.5 622 Z " /><path fill="rgb(252,251,248)" stroke="rgb(252,251,248)" stroke-width="1" opacity="1" d="M 919.5 623 L 920.5 625 L 919.5 623 Z " /><path fill="rgb(252,251,248)" stroke="rgb(252,251,248)" stroke-width="1" opacity="1" d="M 269.5 625 L 268.5 627 L 269.5 625 Z " /><path fill="rgb(252,251,248)" stroke="rgb(252,251,248)" stroke-width="1" opacity="1" d="M 921.5 626 L 922.5 628 L 921.5 626 Z " /><path fill="rgb(252,251,248)" stroke="rgb(252,251,248)" stroke-width="1" opacity="1" d="M 923.5 629 L 924.5 631 L 923.5 629 Z " /><path fill="rgb(252,251,248)" stroke="rgb(252,251,248)" stroke-width="1" opacity="1" d="M 266.5 630 L 265.5 632 L 266.5 630 Z " /><path fill="rgb(252,251,248)" stroke="rgb(252,251,248)" stroke-width="1" opacity="1" d="M 925.5 632 L 926.5 634 L 925.5 632 Z " /><path fill="rgb(252,251,248)" stroke="rgb(252,251,248)" stroke-width="1" opacity="1" d="M 264.5 633 L 263.5 635 L 264.5 633 Z " /><path fill="rgb(252,251,248)" stroke="rgb(252,251,248)" stroke-width="1" opacity="1" d="M 262.5 636 L 261.5 638 L 262.5 636 Z " /><path fill="rgb(252,251,248)" stroke="rgb(252,251,248)" stroke-width="1" opacity="1" d="M 928.5 637 L 929.5 639 L 928.5 637 Z " /><path fill="rgb(252,251,248)" stroke="rgb(252,251,248)" stroke-width="1" opacity="1" d="M 259.5 641 L 258.5 643 L 259.5 641 Z " /><path fill="rgb(252,251,248)" stroke="rgb(252,251,248)" stroke-width="1" opacity="1" d="M 931.5 642 L 932.5 644 L 931.5 642 Z " /><path fill="rgb(252,251,248)" stroke="rgb(252,251,248)" stroke-width="1" opacity="1" d="M 934.5 647 L 935.5 649 L 934.5 647 Z " /><path fill="rgb(252,251,248)" stroke="rgb(252,251,248)" stroke-width="1" opacity="1" d="M 255.5 648 L 254.5 650 L 255.5 648 Z " /><path fill="rgb(252,251,248)" stroke="rgb(252,251,248)" stroke-width="1" opacity="1" d="M 939.5 656 L 942 659.5 L 940 658.5 L 939.5 656 Z " /><path fill="rgb(252,251,248)" stroke="rgb(252,251,248)" stroke-width="1" opacity="1" d="M 250.5 657 L 250 658.5 L 248.5 661 L 249 659.5 L 250.5 657 Z " /><path fill="rgb(252,251,248)" stroke="rgb(252,251,248)" stroke-width="1" opacity="1" d="M 949.5 675 L 951 678.5 L 950 678.5 L 949.5 675 Z " /><path fill="rgb(252,251,248)" stroke="rgb(252,251,248)" stroke-width="1" opacity="1" d="M 589.5 731 L 590 733.5 L 589 733.5 L 589.5 731 Z " /><path fill="rgb(252,251,248)" stroke="rgb(252,251,248)" stroke-width="1" opacity="1" d="M 597.5 745 L 598 748.5 L 597 748.5 L 597.5 745 Z " /><path fill="rgb(252,251,248)" stroke="rgb(252,251,248)" stroke-width="1" opacity="1" d="M 212.5 760 L 213 762.5 L 212 762.5 L 212.5 760 Z " /><path fill="rgb(252,251,248)" stroke="rgb(252,251,248)" stroke-width="1" opacity="1" d="M 978.5 762 L 979 764.5 L 978 764.5 L 978.5 762 Z " /><path fill="rgb(252,251,248)" stroke="rgb(252,251,248)" stroke-width="1" opacity="1" d="M 211.5 765 L 212 767.5 L 211 767.5 L 211.5 765 Z " /><path fill="rgb(252,251,248)" stroke="rgb(252,251,248)" stroke-width="1" opacity="1" d="M 979.5 768 L 980 770.5 L 979 770.5 L 979.5 768 Z " /><path fill="rgb(252,251,248)" stroke="rgb(252,251,248)" stroke-width="1" opacity="1" d="M 210.5 771 L 211 773.5 L 210 773.5 L 210.5 771 Z " /><path fill="rgb(252,251,248)" stroke="rgb(252,251,248)" stroke-width="1" opacity="1" d="M 980.5 773 L 981 776.5 L 980 776.5 L 980.5 773 Z " /><path fill="rgb(252,251,248)" stroke="rgb(252,251,248)" stroke-width="1" opacity="1" d="M 209.5 777 L 210 779.5 L 209 779.5 L 209.5 777 Z " /><path fill="rgb(252,251,248)" stroke="rgb(252,251,248)" stroke-width="1" opacity="1" d="M 981.5 780 L 982 782.5 L 981 782.5 L 981.5 780 Z " /><path fill="rgb(252,251,248)" stroke="rgb(252,251,248)" stroke-width="1" opacity="1" d="M 208.5 783 L 209 786.5 L 208 786.5 L 208.5 783 Z " /><path fill="rgb(252,251,248)" stroke="rgb(252,251,248)" stroke-width="1" opacity="1" d="M 982.5 786 L 983 789.5 L 982 789.5 L 982.5 786 Z " /><path fill="rgb(252,251,248)" stroke="rgb(252,251,248)" stroke-width="1" opacity="1" d="M 207.5 790 L 208 793.5 L 207 793.5 L 207.5 790 Z " /><path fill="rgb(252,251,248)" stroke="rgb(252,251,248)" stroke-width="1" opacity="1" d="M 983.5 793 L 984 796.5 L 983 796.5 L 983.5 793 Z " /><path fill="rgb(252,251,248)" stroke="rgb(252,251,248)" stroke-width="1" opacity="1" d="M 206.5 798 L 207 801.5 L 206 801.5 L 206.5 798 Z " /><path fill="rgb(252,251,248)" stroke="rgb(252,251,248)" stroke-width="1" opacity="1" d="M 984.5 801 L 985 806.5 L 984 806.5 L 984.5 801 Z " /><path fill="rgb(252,251,248)" stroke="rgb(252,251,248)" stroke-width="1" opacity="1" d="M 205.5 808 L 206 814.5 L 205 814.5 L 205.5 808 Z " /><path fill="rgb(252,251,248)" stroke="rgb(252,251,248)" stroke-width="1" opacity="1" d="M 985.5 814 L 986 822.5 L 985 822.5 L 985.5 814 Z " /><path fill="rgb(252,251,248)" stroke="rgb(252,251,248)" stroke-width="1" opacity="1" d="M 204.5 824 L 205 839.5 L 204 839.5 L 204.5 824 Z " /><path fill="rgb(252,251,248)" stroke="rgb(252,251,248)" stroke-width="1" opacity="1" d="M 986.5 837 L 987 846.5 L 986 846.5 L 986.5 837 Z " /><path fill="rgb(252,251,248)" stroke="rgb(252,251,248)" stroke-width="1" opacity="1" d="M 204.5 844 L 205 859.5 L 204 859.5 L 204.5 844 Z " /><path fill="rgb(252,251,248)" stroke="rgb(252,251,248)" stroke-width="1" opacity="1" d="M 985.5 860 L 986 869.5 L 985 869.5 L 985.5 860 Z " /><path fill="rgb(252,251,248)" stroke="rgb(252,251,248)" stroke-width="1" opacity="1" d="M 205.5 868 L 206 875.5 L 205 875.5 L 205.5 868 Z " /><path fill="rgb(252,251,248)" stroke="rgb(252,251,248)" stroke-width="1" opacity="1" d="M 984.5 877 L 985 882.5 L 984 882.5 L 984.5 877 Z " /><path fill="rgb(252,251,248)" stroke="rgb(252,251,248)" stroke-width="1" opacity="1" d="M 206.5 882 L 207 885.5 L 206 885.5 L 206.5 882 Z " /><path fill="rgb(252,251,248)" stroke="rgb(252,251,248)" stroke-width="1" opacity="1" d="M 983.5 887 L 984 890.5 L 983 890.5 L 983.5 887 Z " /><path fill="rgb(252,251,248)" stroke="rgb(252,251,248)" stroke-width="1" opacity="1" d="M 207.5 890 L 208 893.5 L 207 893.5 L 207.5 890 Z " /><path fill="rgb(252,251,248)" stroke="rgb(252,251,248)" stroke-width="1" opacity="1" d="M 982.5 894 L 983 897.5 L 982 897.5 L 982.5 894 Z " /><path fill="rgb(252,251,248)" stroke="rgb(252,251,248)" stroke-width="1" opacity="1" d="M 208.5 897 L 209 900.5 L 208 900.5 L 208.5 897 Z " /><path fill="rgb(252,251,248)" stroke="rgb(252,251,248)" stroke-width="1" opacity="1" d="M 981.5 901 L 982 903.5 L 981 903.5 L 981.5 901 Z " /><path fill="rgb(252,251,248)" stroke="rgb(252,251,248)" stroke-width="1" opacity="1" d="M 209.5 904 L 210 906.5 L 209 906.5 L 209.5 904 Z " /><path fill="rgb(252,251,248)" stroke="rgb(252,251,248)" stroke-width="1" opacity="1" d="M 980.5 907 L 981 909.5 L 980 909.5 L 980.5 907 Z " /><path fill="rgb(252,251,248)" stroke="rgb(252,251,248)" stroke-width="1" opacity="1" d="M 210.5 910 L 211 912.5 L 210 912.5 L 210.5 910 Z " /><path fill="rgb(252,251,248)" stroke="rgb(252,251,248)" stroke-width="1" opacity="1" d="M 979.5 913 L 980 915.5 L 979 915.5 L 979.5 913 Z " /><path fill="rgb(252,251,248)" stroke="rgb(252,251,248)" stroke-width="1" opacity="1" d="M 211.5 916 L 212 918.5 L 211 918.5 L 211.5 916 Z " /><path fill="rgb(252,251,248)" stroke="rgb(252,251,248)" stroke-width="1" opacity="1" d="M 978.5 919 L 979 921.5 L 978 921.5 L 978.5 919 Z " /><path fill="rgb(252,251,248)" stroke="rgb(252,251,248)" stroke-width="1" opacity="1" d="M 212.5 921 L 213 923.5 L 212 923.5 L 212.5 921 Z " /><path fill="rgb(252,251,248)" stroke="rgb(252,251,248)" stroke-width="1" opacity="1" d="M 976.5 928 L 977 930.5 L 976 930.5 L 976.5 928 Z " /><path fill="rgb(252,251,248)" stroke="rgb(252,251,248)" stroke-width="1" opacity="1" d="M 214.5 930 L 215 932.5 L 214 932.5 L 214.5 930 Z " /><path fill="rgb(252,251,248)" stroke="rgb(252,251,248)" stroke-width="1" opacity="1" d="M 215.5 934 L 216 936.5 L 215 936.5 L 215.5 934 Z " /><path fill="rgb(252,251,248)" stroke="rgb(252,251,248)" stroke-width="1" opacity="1" d="M 948.5 1009 L 949 1010.5 L 946.5 1015 L 946 1013.5 L 948.5 1009 Z " /><path fill="rgb(252,251,248)" stroke="rgb(252,251,248)" stroke-width="1" opacity="1" d="M 243.5 1012 L 249 1022.5 L 247 1021.5 L 243 1013.5 L 243.5 1012 Z " /><path fill="rgb(252,251,248)" stroke="rgb(252,251,248)" stroke-width="1" opacity="1" d="M 944.5 1018 L 944 1019.5 L 941.5 1024 L 942 1022.5 L 944.5 1018 Z " /><path fill="rgb(252,251,248)" stroke="rgb(252,251,248)" stroke-width="1" opacity="1" d="M 253.5 1032 L 254.5 1034 L 253.5 1032 Z " /><path fill="rgb(252,251,248)" stroke="rgb(252,251,248)" stroke-width="1" opacity="1" d="M 936.5 1033 L 935.5 1035 L 936.5 1033 Z " /><path fill="rgb(252,251,248)" stroke="rgb(252,251,248)" stroke-width="1" opacity="1" d="M 257.5 1039 L 258.5 1041 L 257.5 1039 Z " /><path fill="rgb(252,251,248)" stroke="rgb(252,251,248)" stroke-width="1" opacity="1" d="M 932.5 1040 L 931.5 1042 L 932.5 1040 Z " /><path fill="rgb(252,251,248)" stroke="rgb(252,251,248)" stroke-width="1" opacity="1" d="M 260.5 1044 L 261.5 1046 L 260.5 1044 Z " /><path fill="rgb(252,251,248)" stroke="rgb(252,251,248)" stroke-width="1" opacity="1" d="M 929.5 1045 L 928.5 1047 L 929.5 1045 Z " /><path fill="rgb(252,251,248)" stroke="rgb(252,251,248)" stroke-width="1" opacity="1" d="M 927.5 1048 L 926.5 1050 L 927.5 1048 Z " /><path fill="rgb(252,251,248)" stroke="rgb(252,251,248)" stroke-width="1" opacity="1" d="M 263.5 1049 L 264.5 1051 L 263.5 1049 Z " /><path fill="rgb(252,251,248)" stroke="rgb(252,251,248)" stroke-width="1" opacity="1" d="M 265.5 1052 L 266.5 1054 L 265.5 1052 Z " /><path fill="rgb(252,251,248)" stroke="rgb(252,251,248)" stroke-width="1" opacity="1" d="M 924.5 1053 L 923.5 1055 L 924.5 1053 Z " /><path fill="rgb(252,251,248)" stroke="rgb(252,251,248)" stroke-width="1" opacity="1" d="M 267.5 1055 L 268.5 1057 L 267.5 1055 Z " /><path fill="rgb(252,251,248)" stroke="rgb(252,251,248)" stroke-width="1" opacity="1" d="M 922.5 1056 L 921.5 1058 L 922.5 1056 Z " /><path fill="rgb(252,251,248)" stroke="rgb(252,251,248)" stroke-width="1" opacity="1" d="M 269.5 1058 L 270.5 1060 L 269.5 1058 Z " /><path fill="rgb(252,251,248)" stroke="rgb(252,251,248)" stroke-width="1" opacity="1" d="M 920.5 1059 L 919.5 1061 L 920.5 1059 Z " /><path fill="rgb(252,251,248)" stroke="rgb(252,251,248)" stroke-width="1" opacity="1" d="M 271.5 1061 L 272.5 1063 L 271.5 1061 Z " /><path fill="rgb(252,251,248)" stroke="rgb(252,251,248)" stroke-width="1" opacity="1" d="M 918.5 1062 L 917.5 1064 L 918.5 1062 Z " /><path fill="rgb(252,251,248)" stroke="rgb(252,251,248)" stroke-width="1" opacity="1" d="M 273.5 1064 L 274.5 1066 L 273.5 1064 Z " /><path fill="rgb(252,251,248)" stroke="rgb(252,251,248)" stroke-width="1" opacity="1" d="M 915.5 1066 L 914.5 1068 L 915.5 1066 Z " /><path fill="rgb(252,251,248)" stroke="rgb(252,251,248)" stroke-width="1" opacity="1" d="M 275.5 1067 L 277.5 1070 L 275.5 1067 Z " /><path fill="rgb(252,251,248)" stroke="rgb(252,251,248)" stroke-width="1" opacity="1" d="M 913.5 1069 L 912.5 1071 L 913.5 1069 Z " /><path fill="rgb(252,251,248)" stroke="rgb(252,251,248)" stroke-width="1" opacity="1" d="M 278.5 1071 L 279.5 1073 L 278.5 1071 Z " /><path fill="rgb(252,251,248)" stroke="rgb(252,251,248)" stroke-width="1" opacity="1" d="M 910.5 1073 L 909.5 1075 L 910.5 1073 Z " /><path fill="rgb(252,251,248)" stroke="rgb(252,251,248)" stroke-width="1" opacity="1" d="M 281.5 1075 L 282.5 1077 L 281.5 1075 Z " /><path fill="rgb(252,251,248)" stroke="rgb(252,251,248)" stroke-width="1" opacity="1" d="M 908.5 1076 L 906.5 1079 L 908.5 1076 Z " /><path fill="rgb(252,251,248)" stroke="rgb(252,251,248)" stroke-width="1" opacity="1" d="M 284.5 1079 L 285.5 1081 L 284.5 1079 Z " /><path fill="rgb(252,251,248)" stroke="rgb(252,251,248)" stroke-width="1" opacity="1" d="M 904.5 1081 L 902.5 1084 L 904.5 1081 Z " /><path fill="rgb(252,251,248)" stroke="rgb(252,251,248)" stroke-width="1" opacity="1" d="M 287.5 1083 L 289.5 1086 L 287.5 1083 Z " /><path fill="rgb(252,251,248)" stroke="rgb(252,251,248)" stroke-width="1" opacity="1" d="M 901.5 1085 L 898.5 1089 L 901.5 1085 Z " /><path fill="rgb(252,251,248)" stroke="rgb(252,251,248)" stroke-width="1" opacity="1" d="M 291.5 1088 L 294.5 1092 L 291.5 1088 Z " /><path fill="rgb(252,251,248)" stroke="rgb(252,251,248)" stroke-width="1" opacity="1" d="M 897.5 1090 L 893.5 1095 L 897.5 1090 Z " /><path fill="rgb(252,251,248)" stroke="rgb(252,251,248)" stroke-width="1" opacity="1" d="M 296.5 1094 L 299.5 1098 L 296.5 1094 Z " /><path fill="rgb(252,251,248)" stroke="rgb(252,251,248)" stroke-width="1" opacity="1" d="M 891.5 1097 L 887.5 1102 L 891.5 1097 Z " /><path fill="rgb(252,251,248)" stroke="rgb(252,251,248)" stroke-width="1" opacity="1" d="M 302.5 1101 L 309.5 1109 L 302.5 1101 Z " /><path fill="rgb(252,251,248)" stroke="rgb(252,251,248)" stroke-width="1" opacity="1" d="M 884.5 1105 L 859.5 1131 L 884.5 1105 Z " /><path fill="rgb(252,251,248)" stroke="rgb(252,251,248)" stroke-width="1" opacity="1" d="M 315.5 1115 L 321.5 1122 L 315.5 1115 Z " /><path fill="rgb(252,251,248)" stroke="rgb(252,251,248)" stroke-width="1" opacity="1" d="M 328.5 1127 L 335.5 1135 L 328.5 1127 Z " /><path fill="rgb(252,251,248)" stroke="rgb(252,251,248)" stroke-width="1" opacity="1" d="M 855.5 1133 L 850.5 1139 L 855.5 1133 Z " /><path fill="rgb(252,251,248)" stroke="rgb(252,251,248)" stroke-width="1" opacity="1" d="M 339.5 1137 L 342.5 1141 L 339.5 1137 Z " /><path fill="rgb(252,251,248)" stroke="rgb(252,251,248)" stroke-width="1" opacity="1" d="M 847.5 1140 L 844.5 1144 L 847.5 1140 Z " /><path fill="rgb(252,251,248)" stroke="rgb(252,251,248)" stroke-width="1" opacity="1" d="M 345.5 1142 L 348.5 1146 L 345.5 1142 Z " /><path fill="rgb(252,251,248)" stroke="rgb(252,251,248)" stroke-width="1" opacity="1" d="M 841.5 1145 L 839.5 1148 L 841.5 1145 Z " /><path fill="rgb(252,251,248)" stroke="rgb(252,251,248)" stroke-width="1" opacity="1" d="M 351.5 1147 L 353.5 1150 L 351.5 1147 Z " /><path fill="rgb(252,251,248)" stroke="rgb(252,251,248)" stroke-width="1" opacity="1" d="M 836.5 1149 L 834.5 1152 L 836.5 1149 Z " /><path fill="rgb(252,251,248)" stroke="rgb(252,251,248)" stroke-width="1" opacity="1" d="M 356.5 1151 L 357.5 1153 L 356.5 1151 Z " /><path fill="rgb(252,251,248)" stroke="rgb(252,251,248)" stroke-width="1" opacity="1" d="M 832.5 1152 L 830.5 1155 L 832.5 1152 Z " /><path fill="rgb(252,251,248)" stroke="rgb(252,251,248)" stroke-width="1" opacity="1" d="M 360.5 1154 L 361.5 1156 L 360.5 1154 Z " /><path fill="rgb(252,251,248)" stroke="rgb(252,251,248)" stroke-width="1" opacity="1" d="M 827.5 1156 L 826.5 1158 L 827.5 1156 Z " /><path fill="rgb(252,251,248)" stroke="rgb(252,251,248)" stroke-width="1" opacity="1" d="M 364.5 1157 L 365.5 1159 L 364.5 1157 Z " /><path fill="rgb(252,251,248)" stroke="rgb(252,251,248)" stroke-width="1" opacity="1" d="M 824.5 1158 L 822.5 1161 L 824.5 1158 Z " /><path fill="rgb(252,251,248)" stroke="rgb(252,251,248)" stroke-width="1" opacity="1" d="M 368.5 1160 L 369.5 1162 L 368.5 1160 Z " /><path fill="rgb(252,251,248)" stroke="rgb(252,251,248)" stroke-width="1" opacity="1" d="M 820.5 1161 L 819.5 1163 L 820.5 1161 Z " /><path fill="rgb(252,251,248)" stroke="rgb(252,251,248)" stroke-width="1" opacity="1" d="M 371.5 1162 L 372.5 1164 L 371.5 1162 Z " /><path fill="rgb(252,251,248)" stroke="rgb(252,251,248)" stroke-width="1" opacity="1" d="M 817.5 1163 L 816.5 1165 L 817.5 1163 Z " /><path fill="rgb(252,251,248)" stroke="rgb(252,251,248)" stroke-width="1" opacity="1" d="M 374.5 1164 L 375.5 1166 L 374.5 1164 Z " /><path fill="rgb(252,251,248)" stroke="rgb(252,251,248)" stroke-width="1" opacity="1" d="M 814.5 1165 L 813.5 1167 L 814.5 1165 Z " /><path fill="rgb(252,251,248)" stroke="rgb(252,251,248)" stroke-width="1" opacity="1" d="M 377.5 1166 L 378.5 1168 L 377.5 1166 Z " /><path fill="rgb(252,251,248)" stroke="rgb(252,251,248)" stroke-width="1" opacity="1" d="M 811.5 1167 L 810.5 1169 L 811.5 1167 Z " /><path fill="rgb(252,251,248)" stroke="rgb(252,251,248)" stroke-width="1" opacity="1" d="M 380.5 1168 L 381.5 1170 L 380.5 1168 Z " /><path fill="rgb(252,251,248)" stroke="rgb(252,251,248)" stroke-width="1" opacity="1" d="M 808.5 1169 L 807.5 1171 L 808.5 1169 Z " /><path fill="rgb(252,251,248)" stroke="rgb(252,251,248)" stroke-width="1" opacity="1" d="M 383.5 1170 L 384.5 1172 L 383.5 1170 Z " /><path fill="rgb(252,251,248)" stroke="rgb(252,251,248)" stroke-width="1" opacity="1" d="M 805.5 1171 L 804.5 1173 L 805.5 1171 Z " /><path fill="rgb(252,251,248)" stroke="rgb(252,251,248)" stroke-width="1" opacity="1" d="M 386.5 1172 L 387.5 1174 L 386.5 1172 Z " /><path fill="rgb(252,251,248)" stroke="rgb(252,251,248)" stroke-width="1" opacity="1" d="M 802.5 1173 L 801.5 1175 L 802.5 1173 Z " /><path fill="rgb(252,251,248)" stroke="rgb(252,251,248)" stroke-width="1" opacity="1" d="M 391.5 1175 L 392.5 1177 L 391.5 1175 Z " /><path fill="rgb(252,251,248)" stroke="rgb(252,251,248)" stroke-width="1" opacity="1" d="M 797.5 1176 L 796.5 1178 L 797.5 1176 Z " /><path fill="rgb(252,251,248)" stroke="rgb(252,251,248)" stroke-width="1" opacity="1" d="M 396.5 1178 L 397.5 1180 L 396.5 1178 Z " /><path fill="rgb(252,251,248)" stroke="rgb(252,251,248)" stroke-width="1" opacity="1" d="M 792.5 1179 L 791.5 1181 L 792.5 1179 Z " /><path fill="rgb(252,251,248)" stroke="rgb(252,251,248)" stroke-width="1" opacity="1" d="M 401.5 1181 L 405 1183.5 L 403.5 1183 L 401.5 1181 Z " /><path fill="rgb(252,251,248)" stroke="rgb(252,251,248)" stroke-width="1" opacity="1" d="M 785.5 1183 L 784.5 1185 L 782.5 1186 L 783.5 1184 L 785.5 1183 Z " /><path fill="rgb(252,251,248)" stroke="rgb(252,251,248)" stroke-width="1" opacity="1" d="M 412.5 1187 L 416 1189.5 L 414.5 1189 L 412.5 1187 Z " /><path fill="rgb(252,251,248)" stroke="rgb(252,251,248)" stroke-width="1" opacity="1" d="M 425.5 1194 L 429 1195.5 L 427.5 1196 L 425.5 1194 Z " /><path fill="rgb(252,251,248)" stroke="rgb(252,251,248)" stroke-width="1" opacity="1" d="M 684.5 1222 L 687 1222.5 L 684.5 1223 L 684.5 1222 Z " /><path fill="rgb(252,251,248)" stroke="rgb(252,251,248)" stroke-width="1" opacity="1" d="M 508.5 1223 L 511 1223.5 L 508.5 1224 L 508.5 1223 Z " /><path fill="rgb(252,251,248)" stroke="rgb(252,251,248)" stroke-width="1" opacity="1" d="M 675.5 1224 L 678 1224.5 L 675.5 1225 L 675.5 1224 Z " /><path fill="rgb(252,251,248)" stroke="rgb(252,251,248)" stroke-width="1" opacity="1" d="M 670.5 1225 L 673 1225.5 L 670.5 1226 L 670.5 1225 Z " /><path fill="rgb(252,251,248)" stroke="rgb(252,251,248)" stroke-width="1" opacity="1" d="M 523.5 1226 L 526 1226.5 L 523.5 1227 L 523.5 1226 Z " /><path fill="rgb(252,251,248)" stroke="rgb(252,251,248)" stroke-width="1" opacity="1" d="M 664.5 1226 L 667 1226.5 L 664.5 1227 L 664.5 1226 Z " /><path fill="rgb(252,251,248)" stroke="rgb(252,251,248)" stroke-width="1" opacity="1" d="M 529.5 1227 L 532 1227.5 L 529.5 1228 L 529.5 1227 Z " /><path fill="rgb(252,251,248)" stroke="rgb(252,251,248)" stroke-width="1" opacity="1" d="M 658.5 1227 L 661 1227.5 L 658.5 1228 L 658.5 1227 Z " /><path fill="rgb(252,251,248)" stroke="rgb(252,251,248)" stroke-width="1" opacity="1" d="M 535.5 1228 L 539 1228.5 L 535.5 1229 L 535.5 1228 Z " /><path fill="rgb(252,251,248)" stroke="rgb(252,251,248)" stroke-width="1" opacity="1" d="M 652.5 1228 L 655 1228.5 L 652.5 1229 L 652.5 1228 Z " /><path fill="rgb(252,251,248)" stroke="rgb(252,251,248)" stroke-width="1" opacity="1" d="M 542.5 1229 L 546 1229.5 L 542.5 1230 L 542.5 1229 Z " /><path fill="rgb(252,251,248)" stroke="rgb(252,251,248)" stroke-width="1" opacity="1" d="M 645.5 1229 L 648 1229.5 L 645.5 1230 L 645.5 1229 Z " /><path fill="rgb(252,251,248)" stroke="rgb(252,251,248)" stroke-width="1" opacity="1" d="M 550.5 1230 L 554 1230.5 L 550.5 1231 L 550.5 1230 Z " /><path fill="rgb(252,251,248)" stroke="rgb(252,251,248)" stroke-width="1" opacity="1" d="M 637.5 1230 L 641 1230.5 L 637.5 1231 L 637.5 1230 Z " /><path fill="rgb(252,251,248)" stroke="rgb(252,251,248)" stroke-width="1" opacity="1" d="M 559.5 1231 L 566 1231.5 L 559.5 1232 L 559.5 1231 Z " /><path fill="rgb(252,251,248)" stroke="rgb(252,251,248)" stroke-width="1" opacity="1" d="M 624.5 1231 L 632 1231.5 L 624.5 1232 L 624.5 1231 Z " /><path fill="rgb(252,251,248)" stroke="rgb(252,251,248)" stroke-width="1" opacity="1" d="M 574.5 1232 L 587 1232.5 L 574.5 1233 L 574.5 1232 Z " /><path fill="rgb(252,251,248)" stroke="rgb(252,251,248)" stroke-width="1" opacity="1" d="M 604.5 1232 L 616 1232.5 L 604.5 1233 L 604.5 1232 Z " /><path fill="rgb(255,255,254)" stroke="rgb(255,255,254)" stroke-width="1" opacity="1" d="M 591.5 450 L 600 450.5 L 591.5 451 L 591.5 450 Z " /><path fill="rgb(255,255,254)" stroke="rgb(255,255,254)" stroke-width="1" opacity="1" d="M 620.5 451 L 623 451.5 L 620.5 452 L 620.5 451 Z " /><path fill="rgb(255,255,254)" stroke="rgb(255,255,254)" stroke-width="1" opacity="1" d="M 847.5 542 L 848.5 544 L 847.5 542 Z " /><path fill="rgb(255,255,254)" stroke="rgb(255,255,254)" stroke-width="1" opacity="1" d="M 855.5 549 L 856.5 551 L 855.5 549 Z " /><path fill="rgb(255,255,254)" stroke="rgb(255,255,254)" stroke-width="1" opacity="1" d="M 329.5 554 L 327.5 557 L 329.5 554 Z " /><path fill="rgb(255,255,254)" stroke="rgb(255,255,254)" stroke-width="1" opacity="1" d="M 870.5 563 L 873.5 567 L 870.5 563 Z " /><path fill="rgb(255,255,254)" stroke="rgb(255,255,254)" stroke-width="1" opacity="1" d="M 309.5 574 L 307.5 577 L 309.5 574 Z " /><path fill="rgb(255,255,254)" stroke="rgb(255,255,254)" stroke-width="1" opacity="1" d="M 204.5 821 L 205 823.5 L 204 823.5 L 204.5 821 Z " /><path fill="rgb(255,255,254)" stroke="rgb(255,255,254)" stroke-width="1" opacity="1" d="M 986.5 832 L 987 836.5 L 986 836.5 L 986.5 832 Z " /><path fill="rgb(255,255,254)" stroke="rgb(255,255,254)" stroke-width="1" opacity="1" d="M 986.5 847 L 987 851.5 L 986 851.5 L 986.5 847 Z " /><path fill="rgb(255,255,254)" stroke="rgb(255,255,254)" stroke-width="1" opacity="1" d="M 893.5 1095 L 892.5 1097 L 893.5 1095 Z " /><path fill="rgb(255,255,254)" stroke="rgb(255,255,254)" stroke-width="1" opacity="1" d="M 300.5 1099 L 301.5 1101 L 300.5 1099 Z " /><path fill="rgb(255,255,254)" stroke="rgb(255,255,254)" stroke-width="1" opacity="1" d="M 886.5 1103 L 885.5 1105 L 886.5 1103 Z " /><path fill="rgb(255,255,254)" stroke="rgb(255,255,254)" stroke-width="1" opacity="1" d="M 310.5 1110 L 314.5 1115 L 310.5 1110 Z " /><path fill="rgb(255,255,254)" stroke="rgb(255,255,254)" stroke-width="1" opacity="1" d="M 322.5 1122 L 326.5 1127 L 322.5 1122 Z " /><path fill="rgb(255,255,254)" stroke="rgb(255,255,254)" stroke-width="1" opacity="1" d="M 858.5 1131 L 857.5 1133 L 858.5 1131 Z " /><path fill="rgb(255,255,254)" stroke="rgb(255,255,254)" stroke-width="1" opacity="1" d="M 336.5 1135 L 337.5 1137 L 336.5 1135 Z " /><path fill="rgb(255,255,254)" stroke="rgb(255,255,254)" stroke-width="1" opacity="1" d="M 343.5 1141 L 344.5 1143 L 343.5 1141 Z " /><path fill="rgb(255,255,254)" stroke="rgb(255,255,254)" stroke-width="1" opacity="1" d="M 616.5 1232 L 619 1232.5 L 616.5 1233 L 616.5 1232 Z " /><path fill="rgb(255,255,255)" stroke="rgb(255,255,255)" stroke-width="1" opacity="1" d="M 0 0 L 1190 0 L 1190 1683 L 0 1683 L 0 0 Z M 592 450 L 591 451 L 556 452 L 555 453 L 548 453 L 547 454 L 522 457 L 488 465 L 455 476 Q 382 505 330 554 Q 273 605 239 679 L 227 708 L 215 747 L 208 783 L 207 796 L 206 797 L 206 806 L 205 807 L 205 821 L 204 822 L 204 862 L 205 863 L 205 878 L 206 879 L 208 902 L 218 949 L 226 974 Q 256 1054 310 1111 Q 361 1164 432 1198 Q 465 1213 504 1223 L 535 1229 L 557 1231 L 558 1232 L 572 1232 L 573 1233 L 619 1233 L 620 1232 L 642 1231 L 643 1230 L 649 1230 L 650 1229 L 656 1229 L 679 1225 L 725 1212 Q 802 1184 858 1133 Q 916 1081 951 1007 L 967 967 L 978 927 L 983 899 L 983 893 L 984 892 L 984 885 L 985 884 L 986 853 L 987 852 L 987 833 L 986 832 L 985 801 L 984 800 L 984 793 L 983 792 L 980 768 L 972 734 L 962 704 Q 930 623 874 567 Q 820 511 744 479 Q 712 466 675 458 L 645 454 L 644 453 L 637 453 L 636 452 L 592 450 Z " /><path fill="rgb(184,167,132)" stroke="rgb(184,167,132)" stroke-width="1" opacity="1" d="M 577.5 720 Q 584.8 719.8 587 724.5 L 587 739.5 L 585.5 740 Q 577.2 748.2 561.5 749 Q 559 748 560 743.5 L 563 738 Q 571.6 734.8 577 727.5 L 578 721.5 L 577.5 720 Z " /><path fill="rgb(184,167,132)" stroke="rgb(184,167,132)" stroke-width="1" opacity="1" d="M 592.5 738 L 594 739.5 L 594 753.5 L 593 756 L 580.5 761 L 560.5 765 L 550.5 773 L 550 764.5 L 556.5 756 Q 566.3 750.8 579.5 749 Q 587.6 746.1 592 739.5 L 592.5 738 Z " /><path fill="rgb(184,167,132)" stroke="rgb(184,167,132)" stroke-width="1" opacity="1" d="M 600.5 752 L 602 753.5 L 602 766.5 Q 597.8 771.8 589.5 773 L 563.5 775 L 553 781 L 554 775.5 L 557.5 771 L 564.5 768 L 588.5 763 L 599 754.5 L 600.5 752 Z " /><path fill="rgb(184,167,132)" stroke="rgb(184,167,132)" stroke-width="1" opacity="1" d="M 601.5 772 L 603 772.5 L 603 782.5 L 599 790 L 588.5 793 L 578.5 793 L 577.5 794 L 576.5 793 L 562.5 792 L 557 787.5 Q 557.5 782 561.5 780 L 568.5 778 L 590.5 777 L 599.5 774 L 601.5 772 Z " /><path fill="rgb(184,167,132)" stroke="rgb(184,167,132)" stroke-width="1" opacity="1" d="M 572.5 802 Q 575.5 801.2 574 805 L 568.5 806 L 558 814.5 Q 551.4 822.4 549 834.5 L 549 852.5 Q 552.5 869 563.5 878 L 570.5 882 L 574 882 Q 575.8 886.5 570.5 885 Q 554.3 881.2 546 869.5 Q 535.1 858.9 538 834.5 Q 542 819.5 552.5 811 L 564.5 804 L 572.5 802 Z " /><path fill="rgb(184,167,132)" stroke="rgb(184,167,132)" stroke-width="1" opacity="1" d="M 584.5 802 Q 604.1 805.4 613 819.5 Q 618.1 826.4 620 836.5 L 620 850.5 Q 616.5 868 604.5 877 Q 596.7 884.5 583 885 L 584.5 882 Q 595.3 880.3 600 872.5 Q 611.1 860.6 609 835.5 Q 606.1 818.9 595.5 810 L 583 803.5 L 584.5 802 Z " /><path fill="rgb(184,167,132)" stroke="rgb(184,167,132)" stroke-width="1" opacity="1" d="M 758.5 802 Q 760.8 801.3 760 803.5 L 750.5 808 L 742 816.5 Q 732.9 827.9 734 849.5 L 736 858.5 L 740 867.5 L 750.5 879 L 760 883.5 Q 760.9 886.9 755.5 885 Q 740.9 881.6 733 871.5 Q 726.8 864.7 724 854.5 L 723 837.5 Q 726.8 819.3 739.5 810 L 747.5 805 L 758.5 802 Z " /><path fill="rgb(184,167,132)" stroke="rgb(184,167,132)" stroke-width="1" opacity="1" d="M 769 802 Q 786.7 804.6 796 816.5 L 803 827.5 L 805 834.5 L 806 845.5 Q 803.2 847.3 805 853.5 L 800 865.5 L 788.5 878 Q 781 884.2 769 885 L 770.5 882 Q 781.9 879.4 787 870.5 L 793 858.5 L 795 848.5 L 795 838.5 L 790 821.5 L 779.5 809 L 772.5 805 L 769 805 L 769 802 Z " /><path fill="rgb(184,167,132)" stroke="rgb(184,167,132)" stroke-width="1" opacity="1" d="M 361.5 803 L 362.5 804 L 385.5 804 L 386.5 803 L 413.5 803 L 415 804.5 L 416 819 Q 413.3 820.1 414 817.5 L 406.5 808 Q 397.9 803.1 382.5 805 L 381.5 806 L 375 806 L 375 840.5 L 376.5 841 Q 381.5 837 392.5 839 Q 395.5 842 402.5 841 L 404 840.5 L 404 846 L 393.5 846 L 385.5 843 L 377.5 843 L 375 845.5 L 375 875.5 L 376 879.5 L 378.5 882 Q 381.1 881.3 380 884 L 361.5 884 L 361 882 L 364 880.5 L 366 870.5 L 366 814.5 Q 363.8 813.3 365 808.5 L 361 804.5 L 361.5 803 Z " /><path fill="rgb(184,167,132)" stroke="rgb(184,167,132)" stroke-width="1" opacity="1" d="M 444.5 803 L 445.5 804 L 458 804 L 458 871.5 L 461 882 Q 464 881 463 884 L 444.5 884 L 444 882 L 447 880.5 L 449 874.5 L 449 812.5 L 447 806 L 444 804.5 L 444.5 803 Z " /><path fill="rgb(184,167,132)" stroke="rgb(184,167,132)" stroke-width="1" opacity="1" d="M 470.5 803 Q 489.5 800.5 496 810.5 Q 498.9 814.1 498 821.5 Q 496.2 828.7 490.5 832 L 471 838.5 L 473.5 840 L 474.5 839 L 487.5 839 L 496 845.5 L 510 875.5 L 515.5 882 Q 520.3 880.7 519 884 L 507.5 884 L 503 882 Q 493.7 867.1 487 848.5 L 480.5 842 L 475.5 841 Q 474.2 843.3 469.5 842 L 467 838.5 L 472.5 835 L 481.5 832 L 485 828.5 Q 488.5 824.5 487 815.5 L 481.5 808 L 473.5 805 L 466.5 805 L 465 805.5 Q 464.1 802.1 469.5 804 L 470.5 803 Z " /><path fill="rgb(184,167,132)" stroke="rgb(184,167,132)" stroke-width="1" opacity="1" d="M 639.5 803 L 640.5 804 L 655.5 804 L 658 803 L 656 808.5 L 675.5 844 L 689 821.5 L 695 809.5 L 695 806.5 L 693 803.5 L 694.5 804 L 703.5 804 L 704.5 803 L 705 804.5 L 696 812.5 L 676 847.5 L 676 874.5 L 677 879.5 L 679.5 882 Q 682.1 881.3 681 884 L 662.5 884 L 662 882 L 665 880.5 L 666 878.5 L 666 846.5 L 650 817.5 L 639 804.5 L 639.5 803 Z " /><path fill="rgb(184,167,132)" stroke="rgb(184,167,132)" stroke-width="1" opacity="1" d="M 525.5 894 Q 535.4 892.9 540 896 L 541 901 Q 536.4 897.9 526.5 899 L 523 901.5 Q 519.4 908.4 521 920.5 L 525.5 928 L 534.5 929 L 540.5 926 L 541 930.5 Q 536.6 935.1 526.5 934 Q 520.8 932.8 518 928.5 L 516 924.5 L 516 903.5 Q 517.4 897.4 522.5 895 L 525.5 894 Z " /><path fill="rgb(184,167,132)" stroke="rgb(184,167,132)" stroke-width="1" opacity="1" d="M 557.5 894 Q 561.3 893.3 562 895.5 L 562 929 L 579.5 929 L 580 933 L 556 933 L 556 895.5 L 557.5 894 Z " /><path fill="rgb(184,167,132)" stroke="rgb(184,167,132)" stroke-width="1" opacity="1" d="M 593.5 894 Q 597.3 893.3 598 895.5 L 598 923.5 L 602.5 929 Q 611.2 930.7 614 926.5 L 616 920.5 L 616 894 L 621 894.5 L 621 924.5 L 615.5 932 Q 611.1 935.1 602.5 934 L 595 929.5 L 592 919.5 L 592 895.5 L 593.5 894 Z " /><path fill="rgb(184,167,132)" stroke="rgb(184,167,132)" stroke-width="1" opacity="1" d="M 639.5 894 L 655.5 894 L 660.5 895 L 665 899.5 L 666 906.5 L 664 911 L 660 912.5 L 665 915.5 Q 667.7 919.3 666 927.5 L 664 931 L 659.5 933 L 638 933 L 638 895.5 L 639.5 894 Z M 644 899 L 644 911 L 657 911 L 659 910 L 660 908 Q 661 902 659 900 L 657 899 L 644 899 Z M 644 915 L 644 929 L 659 928 L 661 925 L 660 918 Q 655 913 644 915 Z " /><path fill="rgb(246,244,233)" stroke="rgb(246,244,233)" stroke-width="1" opacity="1" d="M 581.5 451 L 627.5 452 L 628.5 453 L 638.5 453 L 639.5 454 L 665.5 457 Q 709.8 465.2 746.5 481 Q 822.7 513.8 876 569.5 Q 930.1 624.4 961 702.5 L 973 739.5 L 982 783.5 L 982 789.5 L 984 797.5 L 984 806.5 L 985 807.5 L 985 822.5 L 986 823.5 L 986 859.5 L 985 860.5 L 985 876.5 L 984 877.5 L 984 886.5 L 983 887.5 L 982 900.5 L 974 940.5 L 962 978.5 L 946 1015.5 Q 911.2 1084.2 856.5 1133 Q 804.8 1180.3 733.5 1208 L 703.5 1218 L 669.5 1226 L 645.5 1229 L 644.5 1230 L 637.5 1230 L 636.5 1231 L 587.5 1233 L 586.5 1232 L 554.5 1231 L 553.5 1230 L 546.5 1230 L 545.5 1229 L 515.5 1225 L 480.5 1216 L 437.5 1200 Q 362.4 1166.1 310 1109.5 Q 261.2 1058.3 232 987.5 L 219 949.5 L 211 915.5 L 208 890.5 L 207 889.5 L 207 882.5 L 206 881.5 L 205 844.5 L 204 840.5 L 205 839.5 L 206 802.5 L 207 801.5 L 209 780.5 L 214 753.5 L 221 727.5 L 237 684.5 Q 271.9 607.4 330.5 554 Q 377.8 509.8 441.5 482 L 476.5 469 L 514.5 459 L 537.5 455 L 543.5 455 L 544.5 454 L 551.5 454 L 552.5 453 L 580.5 452 L 581.5 451 Z M 578 720 L 578 722 L 577 728 Q 572 735 563 738 L 560 744 Q 559 748 562 749 Q 577 748 586 740 L 587 740 L 587 725 Q 585 720 578 720 Z M 590 731 L 589 734 L 590 734 L 590 731 Z M 593 738 L 592 740 Q 588 746 580 749 Q 566 751 557 756 L 550 765 L 551 773 L 561 765 L 581 761 L 593 756 L 594 754 L 594 740 L 593 738 Z M 598 745 L 597 749 L 598 749 L 598 745 Z M 601 752 L 599 755 L 589 763 L 565 768 L 558 771 L 554 776 L 553 781 L 564 775 L 590 773 Q 598 772 602 767 L 602 754 L 601 752 Z M 602 772 L 600 774 L 591 777 L 569 778 L 562 780 Q 557 782 557 788 L 563 792 L 577 793 L 578 794 L 579 793 L 589 793 L 599 790 L 603 783 L 603 773 L 602 772 Z M 573 802 L 565 804 L 553 811 Q 542 819 538 835 Q 535 859 546 870 Q 554 881 571 885 Q 576 887 574 882 L 571 882 L 564 878 Q 552 869 549 853 L 549 835 Q 551 822 558 815 L 569 806 L 574 805 Q 575 801 573 802 Z M 585 802 L 583 804 L 596 810 Q 606 819 609 836 Q 611 861 600 873 Q 595 880 585 882 L 583 885 Q 597 884 605 877 Q 616 868 620 851 L 620 837 Q 618 826 613 820 Q 604 805 585 802 Z M 759 802 L 748 805 L 740 810 Q 727 819 723 838 L 724 855 Q 727 865 733 872 Q 741 882 756 885 Q 761 887 760 884 L 751 879 L 740 868 L 736 859 L 734 850 Q 733 828 742 817 L 751 808 L 760 804 Q 761 801 759 802 Z M 769 802 L 769 805 L 773 805 L 780 809 L 790 822 L 795 839 L 795 849 L 793 859 L 787 871 Q 782 879 771 882 L 769 885 Q 781 884 789 878 L 800 866 L 805 854 Q 803 847 806 846 L 805 835 L 803 828 L 796 817 Q 787 805 769 802 Z M 362 803 L 361 805 L 365 809 Q 364 813 366 815 L 366 871 L 364 881 L 361 882 L 362 884 L 380 884 Q 381 881 379 882 L 376 880 L 375 876 L 375 846 L 378 843 L 386 843 L 394 846 L 404 846 L 404 841 L 403 841 Q 396 842 393 839 Q 381 837 377 841 L 375 841 L 375 806 L 382 806 L 383 805 Q 398 803 407 808 L 414 818 Q 413 820 416 819 L 415 805 L 414 803 L 387 803 L 386 804 L 363 804 L 362 803 Z M 445 803 L 444 805 L 447 806 L 449 813 L 449 875 L 447 881 L 444 882 L 445 884 L 463 884 Q 464 881 461 882 L 458 872 L 458 804 L 446 804 L 445 803 Z M 471 803 L 470 804 Q 464 802 465 806 L 467 805 L 474 805 L 482 808 L 487 816 Q 489 825 485 829 L 482 832 L 473 835 L 467 839 L 470 842 Q 474 843 476 841 L 481 842 L 487 849 Q 494 867 503 882 L 508 884 L 519 884 Q 520 881 516 882 L 510 876 L 496 846 L 488 839 L 475 839 L 474 840 L 471 839 L 491 832 Q 496 829 498 822 Q 499 814 496 811 Q 489 801 471 803 Z M 640 803 L 639 805 L 650 818 L 666 847 L 666 879 L 665 881 L 662 882 L 663 884 L 681 884 Q 682 881 680 882 L 677 880 L 676 875 L 676 848 L 696 813 L 705 805 L 705 803 L 704 804 L 695 804 L 693 804 L 695 807 L 695 810 L 689 822 L 676 844 L 656 809 L 658 803 L 656 804 L 641 804 L 640 803 Z M 526 894 L 523 895 Q 517 897 516 904 L 516 925 L 518 929 Q 521 933 527 934 Q 537 935 541 931 L 541 926 L 535 929 L 526 928 L 521 921 Q 519 908 523 902 L 527 899 Q 536 898 541 901 L 540 896 Q 535 893 526 894 Z M 558 894 L 556 896 L 556 933 L 580 933 L 580 929 L 562 929 L 562 896 Q 561 893 558 894 Z M 594 894 L 592 896 L 592 920 L 595 930 L 603 934 Q 611 935 616 932 L 621 925 L 621 895 L 616 894 L 616 921 L 614 927 Q 611 931 603 929 L 598 924 L 598 896 Q 597 893 594 894 Z M 640 894 L 638 896 L 638 933 L 660 933 L 664 931 L 666 928 Q 668 919 665 916 L 660 913 L 664 911 L 666 907 L 665 900 L 661 895 L 656 894 L 640 894 Z " /><path fill="rgb(246,244,233)" stroke="rgb(246,244,233)" stroke-width="1" opacity="1" d="M 644 899 L 656.5 899 L 659 900 Q 660.6 902.1 660 907.5 L 659 910 L 656.5 911 L 644 911 L 644 899 Z " /><path fill="rgb(246,244,233)" stroke="rgb(246,244,233)" stroke-width="1" opacity="1" d="M 644 915 Q 654.5 913.3 660 917.5 L 661 924.5 L 658.5 928 L 644 929 L 644 915 Z " /></svg>